<svg width="1509" height="213" viewBox="0 0 1509 213" fill="none" xmlns="http://www.w3.org/2000/svg">
<path fill-rule="evenodd" clip-rule="evenodd" d="M598.491 4.06576C598.881 3.08576 603.602 2.85529 639.512 3.33529L639.792 43.8353C640.012 73.8253 640.402 84.6753 641.292 85.6253C642.253 86.6452 651.333 86.9251 684.012 86.9251C716.682 86.9251 725.762 86.6453 726.722 85.6253C727.612 84.6749 728.002 73.8236 728.512 3.33529H768.512V212.335H728.512L727.981 170.335C727.691 147.235 727.351 128.225 727.231 128.085C727.095 127.945 707.652 127.835 684.012 127.835C642.013 127.835 640.982 127.885 640.012 129.835C639.392 131.075 639.032 146.935 639.082 171.585C639.112 193.441 638.782 211.668 638.332 212.085C637.872 212.495 628.732 212.715 598.512 212.335L598.252 108.835C598.112 51.9172 598.221 4.78494 598.491 4.06576ZM1043.23 0.795248C1057.75 0.755248 1062.8 1.06528 1063.72 2.04525C1064.67 3.04525 1064.89 26.6654 1064.5 212.335H1023.5L1023.24 107.835C1023.1 50.3553 1023.2 2.77529 1023.47 2.08529C1023.83 1.14539 1028.76 0.825248 1043.23 0.795248ZM386.052 0.505209C386.119 0.0553734 407.386 -0.124167 433.332 0.105795C477.402 0.495792 480.992 0.655566 488.002 2.61556C492.132 3.76557 498.202 5.65504 501.502 6.80501C504.802 7.96503 509.982 10.2955 513.002 11.9954C516.032 13.6855 520.532 16.7057 523.002 18.6956C525.482 20.6757 529.702 24.3356 532.382 26.8255C535.062 29.3056 539.092 34.0354 541.332 37.3353C543.572 40.6353 546.912 46.9353 548.762 51.3353C550.612 55.7352 552.861 62.4853 553.771 66.3353C554.911 71.1653 555.402 77.5154 555.342 86.8353C555.282 97.0052 554.772 102.185 553.252 107.835C552.152 111.955 549.781 118.255 547.981 121.835C546.191 125.405 543.041 130.815 540.991 133.835C538.931 136.855 534.832 141.605 531.872 144.375C528.922 147.145 524.932 150.595 523.002 152.045C521.082 153.485 516.802 156.205 513.502 158.085C510.202 159.955 504.802 162.446 501.502 163.606C498.202 164.776 492.352 166.516 488.502 167.486C482.882 168.896 476.272 169.295 455.002 169.505C440.436 169.655 428.168 169.785 427.752 169.805C427.342 169.825 427.022 178.495 427.042 189.085C427.082 205.935 426.881 208.525 425.401 209.835C423.961 211.115 421.061 211.215 405.611 210.545C395.652 210.115 387.183 209.445 386.792 209.045C386.402 208.655 386.042 161.755 386.012 104.835C385.972 47.9053 385.992 0.965208 386.052 0.505209ZM1508.5 1.33529L1508.73 105.335C1508.92 186.905 1508.7 209.496 1507.73 210.066C1507.05 210.476 1497.5 210.826 1486.5 210.856C1468.54 210.896 1466.34 210.716 1464.9 209.116C1464.02 208.135 1450.1 185.285 1433.97 158.335C1417.84 131.385 1400.11 101.806 1394.57 92.6058C1387.75 81.2869 1383.93 75.8768 1382.75 75.8558C1381.1 75.8358 1381 79.6354 1381.04 142.085C1381.08 195.043 1380.83 208.585 1379.79 209.576C1378.8 210.526 1374.1 210.645 1340.5 209.335L1340.25 105.085L1339.99 0.835287L1385.5 0.875326L1391.38 11.1058C1394.62 16.736 1403.13 31.2356 1410.31 43.3353C1417.48 55.4352 1425.26 68.4852 1427.6 72.3353C1429.95 76.1853 1438.49 90.3553 1446.58 103.835C1454.67 117.315 1462.47 130.245 1463.9 132.585C1465.33 134.915 1466.95 136.685 1467.5 136.495C1468.15 136.278 1468.67 112.278 1469.45 0.795248L1508.5 1.33529ZM124.252 0.0755212C157.951 -0.134474 163.072 0.035316 163.502 1.33529C163.782 2.15529 161.691 7.22529 158.861 12.5853C156.031 17.9452 150.362 28.4053 146.252 35.8353C142.132 43.2553 136.391 53.6053 133.491 58.8353C130.581 64.0551 126.972 70.5852 125.462 73.3353C123.962 76.0853 118.131 86.4353 112.521 96.3353C106.911 106.235 97.0219 124.005 90.5419 135.835C84.0621 147.655 77.4422 159.585 75.8319 162.335C74.2121 165.085 73.1416 167.895 73.4413 168.585C73.8813 169.575 83.2515 169.675 118.351 169.085C157.071 168.435 162.911 168.525 164.392 169.835C165.872 171.145 166.092 173.705 166.092 189.835C166.092 203.673 165.762 208.644 164.792 209.555C163.792 210.505 145.092 210.725 82.0116 210.555C5.27163 210.345 0.511626 210.235 0.261626 208.585C0.121721 207.625 1.0613 205.145 2.36124 203.085C3.66124 201.025 11.4714 187.185 19.7314 172.335C27.9814 157.485 40.0414 135.885 46.5214 124.335C53.0014 112.785 62.3519 95.9053 67.2919 86.8353C72.2219 77.7553 79.5818 64.3752 83.6317 57.0853C87.6817 49.7954 90.7818 43.3854 90.5019 42.8353C90.1819 42.1953 74.4317 41.8458 46.2519 41.8558C12.2629 41.8658 2.22186 41.5857 1.23135 40.6058C0.301353 39.6658 -0.0281395 34.3053 0.0018605 0.835287L42.7519 0.575521C66.2619 0.435521 102.942 0.205521 124.252 0.0755212ZM957.752 0.795248C979.321 0.835247 980.002 0.895427 980.002 2.83529C980.002 3.93528 975.542 17.9954 970.092 34.0853C964.642 50.1753 954.131 81.1053 946.731 102.835C939.341 124.565 928.461 156.955 922.561 174.835C916.672 192.705 911.492 208.015 911.061 208.835C910.411 210.095 906.962 210.335 868.662 210.335L860.462 185.335C855.962 171.585 847.451 145.485 841.561 127.335C835.671 109.185 824.561 74.9852 816.861 51.3353C809.171 27.6854 802.442 6.98528 801.922 5.33529C801.392 3.6853 800.971 1.99528 800.981 1.58529C800.993 1.17534 811.353 0.835287 824.002 0.835287C846.901 0.835287 847.001 0.845486 847.981 3.08529C848.521 4.32529 851.242 13.2053 854.042 22.8353C856.832 32.4551 860.411 44.3851 861.991 49.3353C863.571 54.2853 866.012 62.1553 867.412 66.8353C868.812 71.5153 873.571 87.7054 877.991 102.835C882.401 117.955 886.682 132.245 887.512 134.585C888.332 136.925 889.562 138.846 890.252 138.866C890.942 138.885 892.281 137.195 893.231 135.116C894.191 133.036 895.922 127.735 897.092 123.335C898.262 118.935 901.441 107.905 904.151 98.8353C906.861 89.7653 911.052 76.2653 913.462 68.8353C915.882 61.4052 921.012 44.9852 924.882 32.3353C928.742 19.6854 932.212 7.98528 932.592 6.33529C932.972 4.68532 933.781 2.75522 934.391 2.04525C935.242 1.05532 940.742 0.755249 957.752 0.795248ZM201.512 0.495443C201.973 0.125462 235.015 -0.0647026 347.502 0.335287V40.3353L243.502 41.3353V84.3353L277.502 84.6156C296.202 84.7656 311.842 85.2156 312.252 85.6156C312.672 86.0086 313.122 94.7574 313.252 105.035C313.402 116.503 313.112 124.132 312.502 124.765C311.872 125.405 298.992 125.885 243.502 126.335V168.335L348.502 169.335L348.752 188.835C348.882 199.562 348.662 208.65 348.252 209.055C347.842 209.445 314.992 209.785 275.252 209.805C235.517 209.825 202.559 209.605 202.002 209.335C201.342 209.005 200.942 173.055 200.832 105.005C200.742 47.8953 201.042 0.865443 201.512 0.495443ZM1191.01 2.41536C1192.38 2.16538 1199.36 2.12553 1206.51 2.32552C1216.51 2.59552 1221.81 3.28576 1229.51 5.31576C1235.01 6.76577 1242.88 9.52566 1247.01 11.4456C1251.13 13.3656 1257.66 16.905 1261.51 19.305C1265.36 21.705 1272.16 27.4252 1276.62 32.0052C1281.08 36.5852 1286.94 43.7053 1289.63 47.8353C1292.33 51.9552 1295.97 58.9353 1297.73 63.3353C1299.49 67.7352 1301.59 74.4853 1302.4 78.3353C1303.21 82.1852 1304.34 89.8353 1304.9 95.3353C1305.47 100.835 1305.69 108.705 1305.4 112.835C1305.11 116.955 1303.93 124.155 1302.78 128.835C1301.63 133.515 1299.41 140.485 1297.84 144.335C1296.27 148.185 1293.53 153.735 1291.75 156.665C1289.96 159.595 1285.79 165.445 1282.47 169.665C1279.16 173.885 1273.31 179.865 1269.47 182.965C1265.64 186.065 1259.47 190.455 1255.76 192.715C1252.04 194.985 1246.31 197.955 1243.01 199.335C1239.71 200.705 1233.07 202.825 1228.26 204.045C1220.93 205.895 1216.74 206.255 1202.51 206.255C1188.16 206.255 1184.1 205.895 1176.51 203.995C1171.56 202.745 1163.91 200.035 1159.51 197.975C1155.11 195.915 1148.58 192.256 1145.01 189.856C1141.43 187.456 1136.09 183.425 1133.13 180.915C1130.17 178.395 1125.61 173.635 1123.01 170.335C1120.4 167.035 1116.49 161.405 1114.33 157.835C1112.17 154.265 1109.35 148.855 1108.06 145.835C1106.76 142.815 1104.63 136.515 1103.33 131.835C1101.67 125.905 1100.76 119.405 1100.33 110.335C1099.93 101.975 1100.15 94.3053 1100.95 88.8353C1101.63 84.1553 1103.33 76.7352 1104.72 72.3353C1106.11 67.9353 1108.83 61.1852 1110.77 57.3353C1112.71 53.4853 1116.14 47.8553 1118.38 44.8353C1120.63 41.8053 1125.4 36.2451 1128.99 32.4652C1132.57 28.6952 1139.11 23.2255 1143.51 20.3255C1147.91 17.4255 1154.21 13.7153 1157.51 12.0853C1160.81 10.4553 1166.43 8.21578 1170.01 7.10579C1173.58 6.00579 1179.21 4.59493 1182.51 3.97494L1184.23 3.65755C1187.04 3.13686 1189.87 2.6145 1191.01 2.41536ZM1202.5 29.8353C1160.8 29.8353 1127 63.1901 1127 104.335C1127 145.48 1160.8 178.835 1202.5 178.835C1244.2 178.835 1278 145.48 1278 104.335C1278 63.1902 1244.2 29.8355 1202.5 29.8353ZM1203.84 61.7952C1204.2 61.7767 1206.81 65.4862 1209.63 70.0452C1212.44 74.6052 1216 80.5853 1217.52 83.3353C1219.04 86.0853 1221.66 90.8053 1223.34 93.8353C1225.01 96.8654 1231.45 108.105 1248.92 138.335L1204.71 138.566C1180.41 138.696 1160.42 138.695 1160.26 138.566C1160.14 138.436 1162.31 133.835 1165.11 128.335C1167.9 122.836 1170.96 117.216 1171.91 115.835C1172.86 114.465 1177.6 106.355 1182.45 97.8353C1187.29 89.3053 1193.93 77.7253 1197.21 72.0853C1200.49 66.4454 1203.47 61.8152 1203.84 61.7952ZM466.017 40.3363C460.584 40.1718 457.768 40.1924 452.987 40.3363V40.3353L452.979 40.3363L441.979 40.8363H441.972L441.965 40.8372L428.465 41.8372L428.002 41.8714V128.845H467.981L468.803 128.874C472.852 128.995 476.084 128.733 479.277 127.977C482.678 127.172 486.013 125.811 490.219 123.786L490.241 123.775L490.264 123.762C496.103 120.184 499.117 117.912 504.315 113.725L504.352 113.696L504.383 113.66C507.258 110.287 509.242 107.529 510.78 104.585C512.318 101.641 513.398 98.5303 514.485 94.4642L514.49 94.4456L514.493 94.4261C515.808 87.3182 515.713 83.3122 514.495 76.2503L514.49 76.223L514.482 76.1956L514.116 74.9671C512.301 69.0038 510.62 65.6377 506.906 60.5413L506.9 60.5335C503.137 55.5594 500.488 53.195 495.295 49.431L495.276 49.4173L495.256 49.4046C491.895 47.4233 489.87 46.4713 486.201 44.8773L486.189 44.8724L486.179 44.8675L484.504 44.2484C480.869 42.9341 478.994 42.4781 476.108 41.847L476.104 41.846L474.694 41.5589C471.565 40.9396 469.452 40.665 466.05 40.3382L466.033 40.3363H466.017Z" fill="#0F81E0"/>
</svg>
